<svg width="37" height="38" viewBox="0 0 37 38" fill="none" xmlns="http://www.w3.org/2000/svg">
<path opacity="0.1" fill-rule="evenodd" clip-rule="evenodd" d="M18.5 36.5775C28.165 36.5775 36 28.7637 36 19.1249C36 9.48615 28.165 1.67236 18.5 1.67236C8.83502 1.67236 1 9.48615 1 19.1249C1 28.7637 8.83502 36.5775 18.5 36.5775Z" stroke="#4D4D4D" stroke-width="1.5"/>
<path d="M20.0932 14.6579H21.7016C21.8495 14.6579 21.9696 14.545 21.9696 14.406V12.8945C21.9696 12.7554 21.8495 12.6426 21.7016 12.6426H20.0932C18.4677 12.6426 17.1445 13.8855 17.1445 15.4136V17.177H15.2681C15.1201 17.177 15 17.2899 15 17.4289V18.9404C15 19.0795 15.1201 19.1923 15.2681 19.1923H17.1445V24.4825C17.1445 24.6216 17.2646 24.7344 17.4126 24.7344H19.0209C19.1689 24.7344 19.289 24.6216 19.289 24.4825V19.1923H21.1655C21.2807 19.1923 21.3831 19.1228 21.4201 19.02L21.9562 17.5085C21.9836 17.432 21.9696 17.3473 21.9192 17.2813C21.8683 17.2158 21.7879 17.177 21.7016 17.177H19.289V15.4136C19.289 14.997 19.6498 14.6579 20.0932 14.6579Z" fill="#4D4D4D"/>
</svg>
