<svg width="37" height="37" viewBox="0 0 37 37" fill="none" xmlns="http://www.w3.org/2000/svg">
<path opacity="0.1" fill-rule="evenodd" clip-rule="evenodd" d="M18.5 35.9051C28.165 35.9051 36 28.0914 36 18.4526C36 8.81378 28.165 1 18.5 1C8.83502 1 1 8.81378 1 18.4526C1 28.0914 8.83502 35.9051 18.5 35.9051Z" stroke="#4D4D4D" stroke-width="1.5"/>
<path d="M21.625 12.3125H16.375C15.563 12.3134 14.7846 12.6363 14.2104 13.2104C13.6363 13.7846 13.3134 14.563 13.3125 15.375V20.625C13.3134 21.437 13.6363 22.2154 14.2104 22.7896C14.7846 23.3637 15.563 23.6866 16.375 23.6875H21.625C22.437 23.6866 23.2154 23.3637 23.7896 22.7896C24.3637 22.2154 24.6866 21.437 24.6875 20.625V15.375C24.6866 14.563 24.3637 13.7846 23.7896 13.2104C23.2154 12.6363 22.437 12.3134 21.625 12.3125ZM19 20.625C18.4808 20.625 17.9733 20.471 17.5416 20.1826C17.1099 19.8942 16.7735 19.4842 16.5748 19.0045C16.3761 18.5249 16.3242 17.9971 16.4254 17.4879C16.5267 16.9787 16.7767 16.511 17.1438 16.1438C17.511 15.7767 17.9787 15.5267 18.4879 15.4254C18.9971 15.3242 19.5249 15.3761 20.0045 15.5748C20.4842 15.7735 20.8942 16.1099 21.1826 16.5416C21.471 16.9733 21.625 17.4808 21.625 18C21.6243 18.696 21.3475 19.3632 20.8554 19.8554C20.3632 20.3475 19.696 20.6243 19 20.625ZM22.2812 15.375C22.1515 15.375 22.0246 15.3365 21.9167 15.2644C21.8087 15.1923 21.7246 15.0898 21.675 14.9699C21.6253 14.85 21.6123 14.718 21.6376 14.5907C21.6629 14.4634 21.7254 14.3465 21.8172 14.2547C21.909 14.1629 22.0259 14.1004 22.1532 14.0751C22.2805 14.0498 22.4125 14.0628 22.5324 14.1125C22.6523 14.1621 22.7548 14.2462 22.8269 14.3542C22.899 14.4621 22.9375 14.589 22.9375 14.7188C22.9375 14.8928 22.8684 15.0597 22.7453 15.1828C22.6222 15.3059 22.4553 15.375 22.2812 15.375ZM20.75 18C20.75 18.3461 20.6474 18.6845 20.4551 18.9722C20.2628 19.26 19.9895 19.4843 19.6697 19.6168C19.3499 19.7492 18.9981 19.7839 18.6586 19.7164C18.3191 19.6489 18.0073 19.4822 17.7626 19.2374C17.5178 18.9927 17.3511 18.6809 17.2836 18.3414C17.2161 18.0019 17.2508 17.6501 17.3832 17.3303C17.5157 17.0105 17.74 16.7372 18.0278 16.5449C18.3155 16.3526 18.6539 16.25 19 16.25C19.4641 16.25 19.9092 16.4344 20.2374 16.7626C20.5656 17.0908 20.75 17.5359 20.75 18Z" fill="#4D4D4D"/>
</svg>
