<svg width="37" height="38" viewBox="0 0 37 38" fill="none" xmlns="http://www.w3.org/2000/svg">
<path opacity="0.1" fill-rule="evenodd" clip-rule="evenodd" d="M18.5 36.5775C28.165 36.5775 36 28.7637 36 19.1249C36 9.48615 28.165 1.67236 18.5 1.67236C8.83502 1.67236 1 9.48615 1 19.1249C1 28.7637 8.83502 36.5775 18.5 36.5775Z" stroke="#4D4D4D" stroke-width="1.5"/>
<path d="M24.2202 15.8985C24.139 15.8069 24.0081 15.7839 23.9007 15.8404C23.8339 15.8754 23.7083 15.9215 23.5592 15.967C23.7473 15.7105 23.8985 15.4232 23.9653 15.1651C23.9942 15.0538 23.952 14.9365 23.8601 14.8702C23.7682 14.8044 23.6458 14.8044 23.5539 14.8702C23.4091 14.9738 22.7102 15.2851 22.2683 15.386C21.2696 14.4887 20.1074 14.3955 18.8992 15.119C17.9171 15.7072 17.7034 16.9032 17.7451 17.6322C15.4971 17.4102 14.0998 16.1923 13.3132 15.1843C13.2582 15.1136 13.1695 15.0763 13.0861 15.0818C12.9985 15.0883 12.9194 15.1382 12.8745 15.2155C12.5026 15.8595 12.3995 16.5715 12.5774 17.2748C12.6747 17.6585 12.8446 17.9967 13.0418 18.2707C12.9472 18.223 12.8558 18.1633 12.7698 18.092C12.6907 18.0252 12.5801 18.0126 12.4866 18.0569C12.3936 18.1024 12.3343 18.1989 12.3343 18.3047C12.3343 19.5122 13.0706 20.3179 13.7583 20.7389C13.6472 20.7252 13.5312 20.7 13.4142 20.6633C13.3138 20.632 13.2048 20.6633 13.1353 20.7444C13.0658 20.8249 13.0493 20.9401 13.0926 21.0382C13.4789 21.9146 14.2109 22.5175 15.1166 22.7362C14.3258 23.2126 13.2673 23.4461 12.298 23.3315C12.1724 23.3134 12.0527 23.3951 12.0132 23.519C11.9736 23.6428 12.0255 23.7788 12.1361 23.8423C13.6066 24.6892 14.936 24.9917 16.0849 24.9917C17.7568 24.9917 19.0472 24.3515 19.8327 23.816C21.9503 22.3745 23.2701 19.7863 23.0863 17.4705C23.4256 17.2134 23.9333 16.7387 24.248 16.2284C24.3132 16.1254 24.3014 15.9894 24.2202 15.8985Z" fill="#4D4D4D"/>
</svg>
