<svg width="202" height="42" viewBox="0 0 202 42" fill="none" xmlns="http://www.w3.org/2000/svg">
<path d="M2.176 32V9.6H7.04L14.176 23.808L21.216 9.6H26.08V32H21.984V16.544L15.744 28.8H12.512L6.272 16.544V32H2.176ZM32.314 39.04L35.994 30.944H35.034L28.858 16.128H33.306L37.754 27.296L42.394 16.128H46.746L36.666 39.04H32.314ZM49.5198 32V9.6H53.6158V32H49.5198ZM57.9573 32V9.6H72.5813V12.896H62.0533V19.04H71.6213V22.24H62.0533V28.704H72.5813V32H57.9573ZM76.4573 32V9.6H84.7453C86.5373 9.6 88.0199 9.89867 89.1933 10.496C90.3666 11.0933 91.2413 11.9147 91.8173 12.96C92.3933 14.0053 92.6813 15.1787 92.6813 16.48C92.6813 17.7173 92.4039 18.8587 91.8493 19.904C91.2946 20.928 90.4306 21.76 89.2573 22.4C88.0839 23.0187 86.5799 23.328 84.7453 23.328H80.5533V32H76.4573ZM80.5533 20H84.4893C85.9186 20 86.9426 19.6907 87.5613 19.072C88.2013 18.432 88.5213 17.568 88.5213 16.48C88.5213 15.3707 88.2013 14.5067 87.5613 13.888C86.9426 13.248 85.9186 12.928 84.4893 12.928H80.5533V20Z" fill="#212936"/>
<path d="M103.52 32V9.6H112.512C114.837 9.6 116.608 10.144 117.824 11.232C119.061 12.2987 119.68 13.6747 119.68 15.36C119.68 16.768 119.296 17.8987 118.528 18.752C117.781 19.584 116.864 20.1493 115.776 20.448C117.056 20.704 118.112 21.344 118.944 22.368C119.776 23.3707 120.192 24.544 120.192 25.888C120.192 27.6587 119.552 29.12 118.272 30.272C116.992 31.424 115.178 32 112.832 32H103.52ZM107.616 19.008H111.904C113.056 19.008 113.941 18.7413 114.56 18.208C115.178 17.6747 115.488 16.9173 115.488 15.936C115.488 14.9973 115.178 14.2613 114.56 13.728C113.962 13.1733 113.056 12.896 111.84 12.896H107.616V19.008ZM107.616 28.672H112.192C113.408 28.672 114.346 28.3947 115.008 27.84C115.69 27.264 116.032 26.464 116.032 25.44C116.032 24.3947 115.68 23.5733 114.976 22.976C114.272 22.3787 113.322 22.08 112.128 22.08H107.616V28.672ZM129.563 32.384C127.579 32.384 126.043 31.7653 124.955 30.528C123.889 29.2907 123.355 27.4773 123.355 25.088V16.128H127.419V24.704C127.419 26.0693 127.697 27.1147 128.251 27.84C128.806 28.5653 129.681 28.928 130.875 28.928C132.006 28.928 132.934 28.5227 133.659 27.712C134.406 26.9013 134.779 25.7707 134.779 24.32V16.128H138.875V32H135.259L134.939 29.312C134.449 30.2507 133.734 30.9973 132.795 31.552C131.878 32.1067 130.801 32.384 129.563 32.384ZM150.376 32.384C148.883 32.384 147.549 32.0213 146.376 31.296C145.203 30.5707 144.275 29.5787 143.592 28.32C142.909 27.0613 142.568 25.632 142.568 24.032C142.568 22.432 142.909 21.0133 143.592 19.776C144.275 18.5173 145.203 17.536 146.376 16.832C147.549 16.1067 148.883 15.744 150.376 15.744C151.571 15.744 152.616 15.968 153.512 16.416C154.408 16.864 155.133 17.4933 155.688 18.304V8.96H159.784V32H156.136L155.688 29.728C155.176 30.432 154.493 31.0507 153.64 31.584C152.808 32.1173 151.72 32.384 150.376 32.384ZM151.24 28.8C152.563 28.8 153.64 28.3627 154.472 27.488C155.325 26.592 155.752 25.4507 155.752 24.064C155.752 22.6773 155.325 21.5467 154.472 20.672C153.64 19.776 152.563 19.328 151.24 19.328C149.939 19.328 148.861 19.7653 148.008 20.64C147.155 21.5147 146.728 22.6453 146.728 24.032C146.728 25.4187 147.155 26.56 148.008 27.456C148.861 28.352 149.939 28.8 151.24 28.8ZM171.251 32.384C169.758 32.384 168.424 32.0213 167.251 31.296C166.078 30.5707 165.15 29.5787 164.467 28.32C163.784 27.0613 163.443 25.632 163.443 24.032C163.443 22.432 163.784 21.0133 164.467 19.776C165.15 18.5173 166.078 17.536 167.251 16.832C168.424 16.1067 169.758 15.744 171.251 15.744C172.446 15.744 173.491 15.968 174.387 16.416C175.283 16.864 176.008 17.4933 176.563 18.304V8.96H180.659V32H177.011L176.563 29.728C176.051 30.432 175.368 31.0507 174.515 31.584C173.683 32.1173 172.595 32.384 171.251 32.384ZM172.115 28.8C173.438 28.8 174.515 28.3627 175.347 27.488C176.2 26.592 176.627 25.4507 176.627 24.064C176.627 22.6773 176.2 21.5467 175.347 20.672C174.515 19.776 173.438 19.328 172.115 19.328C170.814 19.328 169.736 19.7653 168.883 20.64C168.03 21.5147 167.603 22.6453 167.603 24.032C167.603 25.4187 168.03 26.56 168.883 27.456C169.736 28.352 170.814 28.8 172.115 28.8ZM186.814 39.04L190.494 30.944H189.534L183.358 16.128H187.806L192.254 27.296L196.894 16.128H201.246L191.166 39.04H186.814Z" fill="#43A4F5"/>
</svg>
